inDegrees=no
num_controls=7
num_derivatives=13
num_iterations=118
num_multipliers=7
num_parameters=0
num_slacks=7
num_states=26
objective=5.716387
objective_accelerations=0.730729
objective_balance=0.044355
objective_effort=0.262231
objective_height=4.612160
objective_ligament=0.066913
solver_duration=1330.379573
status=Solve_Succeeded
success=true
DataType=double
version=3
OpenSimVersion=4.4-2022-07-23-0e9fedc
endheader
time	/jointset/ground_pelvis/pelvis_tilt/value	/jointset/ground_pelvis/pelvis_tx/value	/jointset/ground_pelvis/pelvis_ty/value	/jointset/hip_l/hip_flexion_l/value	/jointset/hip_l/hip_adduction_l/value	/jointset/hip_l/hip_rotation_l/value	/jointset/back/lumbar_extension/value	/jointset/patellofemoral_l/patellar_flexion_l/value	/jointset/knee_l/knee_flexion_l/value	/jointset/knee_l/knee_adduction_l/value	/jointset/knee_l/knee_rotation_l/value	/jointset/ankle_l/ankle_angle_l/value	/jointset/subtalar_l/subtalar_angle_l/value	/jointset/ground_pelvis/pelvis_tilt/speed	/jointset/ground_pelvis/pelvis_tx/speed	/jointset/ground_pelvis/pelvis_ty/speed	/jointset/hip_l/hip_flexion_l/speed	/jointset/hip_l/hip_adduction_l/speed	/jointset/hip_l/hip_rotation_l/speed	/jointset/back/lumbar_extension/speed	/jointset/patellofemoral_l/patellar_flexion_l/speed	/jointset/knee_l/knee_flexion_l/speed	/jointset/knee_l/knee_adduction_l/speed	/jointset/knee_l/knee_rotation_l/speed	/jointset/ankle_l/ankle_angle_l/speed	/jointset/subtalar_l/subtalar_angle_l/speed	/forceset/tau_hip_flexion_l	/forceset/tau_hip_adduction_l	/forceset/tau_hip_rotation_l	/forceset/tau_knee_flexion_l	/forceset/tau_ankle_angle_l	/forceset/tau_subtalar_angle_l	/forceset/tau_lumbar_extension	lambda_cid13_p0	lambda_cid13_p1	lambda_cid13_p2	lambda_cid13_p3	lambda_cid13_p4	lambda_cid13_p5	lambda_cid14_p0	/jointset/ground_pelvis/pelvis_tilt/accel	/jointset/ground_pelvis/pelvis_tx/accel	/jointset/ground_pelvis/pelvis_ty/accel	/jointset/hip_l/hip_flexion_l/accel	/jointset/hip_l/hip_adduction_l/accel	/jointset/hip_l/hip_rotation_l/accel	/jointset/back/lumbar_extension/accel	/jointset/patellofemoral_l/patellar_flexion_l/accel	/jointset/knee_l/knee_flexion_l/accel	/jointset/knee_l/knee_adduction_l/accel	/jointset/knee_l/knee_rotation_l/accel	/jointset/ankle_l/ankle_angle_l/accel	/jointset/subtalar_l/subtalar_angle_l/accel	gamma_cid13_p0	gamma_cid13_p1	gamma_cid13_p2	gamma_cid13_p3	gamma_cid13_p4	gamma_cid13_p5	gamma_cid14_p0
1	-0.4127248192706185	0.006163663336100559	0.5790032175928665	1.627456612451115	-0.4904532733754227	0.02872119106830269	-0.2617854667812852	1.513510833003043	1.513510833003408	-0.04710918002632544	-0.1745233457742985	0.4362496443621086	0.106053695470019	-0.01620756862267202	0.008806899200266788	0.001385006704696325	-0.001757082136155771	-0.00336192314524731	0.002231314125751612	-1.861432842418232e-05	-0.001431784918235256	-0.001431784918235809	-0.006244706071651044	-0.0001312500704300616	0.01562298626104413	0.007433220696497786	-0.2643799322982217	0.05437055875958619	0.002333727536062714	-0.354579162495728	-0.07597706902944819	0.01527014765146654	0.2409221260548101	-64.24543451026646	6.280258731179877	-3.236906777718211	16.64348267346253	-640.7951778073121	-52.61987803109985	-0.03652719561625107	1.117571089134173	-0.008948446293796181	1.965893286922617	-6.045865434649105	0.1491041072120138	-2.422772269120207	-0.01441783408004291	-5.73137794682278	-5.731377946822855	-0.7361443025249038	-0.03675025752534702	-1.575502201364822	-1.026471216606252	2.873092346192045e-09	2.127729279766894e-08	-1.277400569661916e-08	4.151401639482987e-09	-1.070662181404933e-09	3.875504934328435e-08	3.780798489901894e-10
1.01	-0.4128317080874125	0.006251274187388832	0.5791152110345785	1.627137813388803	-0.4904785806592192	0.02862151202455086	-0.2617856108039613	1.513210234685242	1.513210234685411	-0.04720605939617133	-0.1745247416063937	0.4363273730125056	0.1060783948344012	-0.005166565407837912	0.008718653246922744	0.02100950178515411	-0.0619972128262203	-0.001696212710974524	-0.02216031201271095	-1.451031083668303e-05	-0.05868148437889031	-0.05868148437888383	-0.01312962106374047	-0.000144483597331029	-7.806097716939056e-05	-0.002488214298117401	-0.264264624103187	0.05438664598234576	0.002324143713308589	-0.3544124357928278	-0.07596579184095827	0.01530083717319086	0.2408326263503938	-64.22452666207904	6.254078969600187	-3.222235279706234	16.53457775016627	-640.6109989725486	-52.6351369448878	-0.03695194265364701	1.097908166242002	-0.008254959803831759	1.960098496821773	-6.012260635604866	0.1758004929218432	-2.446343017336403	0.007176502285482106	-5.720804389501039	-5.720804389499952	-0.6644383473521388	0.0169132683554275	-1.567527285923425	-0.9742136082894902	-5.872923635267598e-09	2.735274653118299e-09	3.046603549621445e-08	1.929616407678305e-09	-1.062268794738673e-08	6.758804896815147e-08	-1.195766526309994e-08
1.02	-0.4128280782263489	0.006338104121153688	0.5794233236027384	1.626216778269709	-0.4904871316423997	0.02827811967318444	-0.26178584338965	1.512337331684072	1.512337331684023	-0.04737174256585797	-0.1745261651401873	0.4362480669308178	0.1060040330553539	0.00589616695038244	0.008650715695583695	0.04060883199432313	-0.1222042934930562	-1.066302120923878e-05	-0.04651134739626531	-3.632698892555313e-05	-0.1158927215921025	-0.1158927215920874	-0.02000546604789024	-0.0001367903791242429	-0.0157839602503315	-0.01237900798874998	-0.2641493159080732	0.05440273320504517	0.00231455989091738	-0.3542457090899189	-0.07595451465249957	0.01533152669478014	0.2407431266460592	-64.21135238045841	6.229242742260787	-3.207765875439828	16.46451903671212	-640.5481236513243	-52.63141811883703	-0.03820030645186628	1.121916917811403	-0.004886765892731683	1.96086031266484	-6.039255430003418	0.1530719583102369	-2.414654118138797	-0.01960197321440862	-5.723685497334112	-5.723685497333861	-0.7343303009371004	-0.03256490850440288	-1.576472608354464	-1.02034295581013	-1.463441179083671e-08	-1.618144971107799e-08	7.358574120732759e-08	-2.710620334082189e-10	-2.008068342864217e-08	9.428824245691931e-08	-2.405105662747346e-08
1.03	-0.4127137353396479	0.006424368789521896	0.5799272225469586	1.624694055667398	-0.490478691323079	0.02769149406737004	-0.2617863908299008	1.510892582988023	1.510892582988056	-0.04760610161255327	-0.1745274257879942	0.4360115875371441	0.105830938332017	0.01697337125303221	0.008606817153519674	0.06015868116526584	-0.1823126286921111	0.001706625443781907	-0.07079869529509797	-7.381798872914261e-05	-0.1730432177605649	-0.1730432177605619	-0.02686054863655942	-0.0001115304607982876	-0.03152138324801418	-0.02223089864878359	-0.2637939022688033	0.05440688922268184	0.002274786567225909	-0.3538226908077766	-0.07584617405147827	0.01542719384283555	0.2404768736965	-64.13975820135202	6.149054173425479	-3.16516378866615	16.33583648078827	-640.1431912672181	-52.68286918967092	-0.04047882187930391	1.100763627321742	-0.003452029345898136	1.950199901692347	-5.992486019786861	0.1822288580520227	-2.433536051196521	0.004078804304528843	-5.708654395953694	-5.708654395955804	-0.6602458063815293	0.02066875557357609	-1.573800514949715	-0.9662645023328474	-2.339605782573347e-08	-3.51019976081278e-08	1.167042190053619e-07	-2.471525099079251e-09	-2.953771941719633e-08	1.209666726177678e-07	-3.614197499442131e-08
